<mxfile host="app.diagrams.net" modified="2022-08-23T01:24:54.841Z" agent="5.0 (Macintosh; Intel Mac OS X 10_15_7) AppleWebKit/537.36 (KHTML, like Gecko) Chrome/99.0.4844.74 Safari/537.36" etag="pVrUiUxQLpLO42VOWaUD" version="20.2.4" type="github">
  <diagram id="RmURm4v30i4nBOYCtqJS" name="第 1 页">
    <mxGraphModel dx="1875" dy="540" grid="1" gridSize="10" guides="1" tooltips="1" connect="1" arrows="1" fold="1" page="1" pageScale="1" pageWidth="827" pageHeight="1169" math="0" shadow="0">
      <root>
        <mxCell id="0" />
        <mxCell id="1" parent="0" />
        <mxCell id="JsweZ0hBpdjGZ_ju9Et5-11" style="edgeStyle=orthogonalEdgeStyle;rounded=0;orthogonalLoop=1;jettySize=auto;html=1;exitX=1;exitY=0.25;exitDx=0;exitDy=0;entryX=0;entryY=0.25;entryDx=0;entryDy=0;" edge="1" parent="1" source="JsweZ0hBpdjGZ_ju9Et5-3" target="JsweZ0hBpdjGZ_ju9Et5-4">
          <mxGeometry relative="1" as="geometry" />
        </mxCell>
        <mxCell id="JsweZ0hBpdjGZ_ju9Et5-38" style="edgeStyle=none;rounded=0;orthogonalLoop=1;jettySize=auto;html=1;exitX=0;exitY=1;exitDx=0;exitDy=0;entryX=0.75;entryY=0;entryDx=0;entryDy=0;" edge="1" parent="1" source="JsweZ0hBpdjGZ_ju9Et5-3" target="JsweZ0hBpdjGZ_ju9Et5-37">
          <mxGeometry relative="1" as="geometry" />
        </mxCell>
        <mxCell id="JsweZ0hBpdjGZ_ju9Et5-51" style="edgeStyle=none;rounded=0;orthogonalLoop=1;jettySize=auto;html=1;exitX=0.25;exitY=0;exitDx=0;exitDy=0;entryX=0.25;entryY=1;entryDx=0;entryDy=0;" edge="1" parent="1" source="JsweZ0hBpdjGZ_ju9Et5-3" target="JsweZ0hBpdjGZ_ju9Et5-31">
          <mxGeometry relative="1" as="geometry" />
        </mxCell>
        <mxCell id="JsweZ0hBpdjGZ_ju9Et5-57" style="edgeStyle=none;rounded=0;orthogonalLoop=1;jettySize=auto;html=1;exitX=0.75;exitY=1;exitDx=0;exitDy=0;entryX=0.75;entryY=0;entryDx=0;entryDy=0;" edge="1" parent="1" source="JsweZ0hBpdjGZ_ju9Et5-3" target="JsweZ0hBpdjGZ_ju9Et5-16">
          <mxGeometry relative="1" as="geometry" />
        </mxCell>
        <mxCell id="JsweZ0hBpdjGZ_ju9Et5-3" value="前端控制器(DispatcherServlet)" style="rounded=1;whiteSpace=wrap;html=1;" vertex="1" parent="1">
          <mxGeometry x="90" y="220" width="150" height="45" as="geometry" />
        </mxCell>
        <mxCell id="JsweZ0hBpdjGZ_ju9Et5-13" style="edgeStyle=orthogonalEdgeStyle;rounded=0;orthogonalLoop=1;jettySize=auto;html=1;exitX=0;exitY=0.75;exitDx=0;exitDy=0;entryX=1;entryY=0.75;entryDx=0;entryDy=0;" edge="1" parent="1" source="JsweZ0hBpdjGZ_ju9Et5-4" target="JsweZ0hBpdjGZ_ju9Et5-3">
          <mxGeometry relative="1" as="geometry" />
        </mxCell>
        <mxCell id="JsweZ0hBpdjGZ_ju9Et5-4" value="处理映射器(HandlerMapping)" style="rounded=1;whiteSpace=wrap;html=1;" vertex="1" parent="1">
          <mxGeometry x="480" y="220" width="150" height="45" as="geometry" />
        </mxCell>
        <mxCell id="JsweZ0hBpdjGZ_ju9Et5-12" value="2.请求HandlerMapping获取Handler" style="text;html=1;strokeColor=none;fillColor=none;align=center;verticalAlign=middle;whiteSpace=wrap;rounded=0;" vertex="1" parent="1">
          <mxGeometry x="250" y="200" width="210" height="30" as="geometry" />
        </mxCell>
        <mxCell id="JsweZ0hBpdjGZ_ju9Et5-15" value="3.返回Handler，HandlerExecutionChain" style="text;html=1;strokeColor=none;fillColor=none;align=center;verticalAlign=middle;whiteSpace=wrap;rounded=0;" vertex="1" parent="1">
          <mxGeometry x="250" y="260" width="230" height="30" as="geometry" />
        </mxCell>
        <mxCell id="JsweZ0hBpdjGZ_ju9Et5-26" style="rounded=0;orthogonalLoop=1;jettySize=auto;html=1;exitX=0.25;exitY=0;exitDx=0;exitDy=0;entryX=0.25;entryY=1;entryDx=0;entryDy=0;" edge="1" parent="1" source="JsweZ0hBpdjGZ_ju9Et5-16" target="JsweZ0hBpdjGZ_ju9Et5-3">
          <mxGeometry relative="1" as="geometry" />
        </mxCell>
        <mxCell id="JsweZ0hBpdjGZ_ju9Et5-54" style="edgeStyle=none;rounded=0;orthogonalLoop=1;jettySize=auto;html=1;exitX=1;exitY=0.25;exitDx=0;exitDy=0;entryX=0;entryY=0.25;entryDx=0;entryDy=0;" edge="1" parent="1" source="JsweZ0hBpdjGZ_ju9Et5-16" target="JsweZ0hBpdjGZ_ju9Et5-19">
          <mxGeometry relative="1" as="geometry" />
        </mxCell>
        <mxCell id="JsweZ0hBpdjGZ_ju9Et5-16" value="处理适配器(HandlerAdapter)，执行不同类型的Handler" style="rounded=1;whiteSpace=wrap;html=1;" vertex="1" parent="1">
          <mxGeometry x="90" y="370" width="150" height="60" as="geometry" />
        </mxCell>
        <mxCell id="JsweZ0hBpdjGZ_ju9Et5-55" style="edgeStyle=none;rounded=0;orthogonalLoop=1;jettySize=auto;html=1;exitX=0;exitY=0.75;exitDx=0;exitDy=0;entryX=1;entryY=0.75;entryDx=0;entryDy=0;" edge="1" parent="1" source="JsweZ0hBpdjGZ_ju9Et5-19" target="JsweZ0hBpdjGZ_ju9Et5-16">
          <mxGeometry relative="1" as="geometry" />
        </mxCell>
        <mxCell id="JsweZ0hBpdjGZ_ju9Et5-19" value="处理器(Handler)，类似Action" style="rounded=1;whiteSpace=wrap;html=1;" vertex="1" parent="1">
          <mxGeometry x="480" y="370" width="150" height="60" as="geometry" />
        </mxCell>
        <mxCell id="JsweZ0hBpdjGZ_ju9Et5-21" value="5.执行Handler" style="text;html=1;align=center;verticalAlign=middle;resizable=0;points=[];autosize=1;strokeColor=none;fillColor=none;" vertex="1" parent="1">
          <mxGeometry x="315" y="390" width="100" height="30" as="geometry" />
        </mxCell>
        <mxCell id="JsweZ0hBpdjGZ_ju9Et5-23" value="6.Handler执行完毕&lt;br&gt;返回一个Model AndView" style="text;html=1;align=center;verticalAlign=middle;resizable=0;points=[];autosize=1;strokeColor=none;fillColor=none;" vertex="1" parent="1">
          <mxGeometry x="285" y="420" width="150" height="40" as="geometry" />
        </mxCell>
        <mxCell id="JsweZ0hBpdjGZ_ju9Et5-24" value="4.请求HandlerAdaper&lt;br&gt;执行Handler" style="text;html=1;align=center;verticalAlign=middle;resizable=0;points=[];autosize=1;strokeColor=none;fillColor=none;" vertex="1" parent="1">
          <mxGeometry x="175" y="300" width="140" height="40" as="geometry" />
        </mxCell>
        <mxCell id="JsweZ0hBpdjGZ_ju9Et5-30" value="7.返回ModelAndView" style="text;html=1;align=center;verticalAlign=middle;resizable=0;points=[];autosize=1;strokeColor=none;fillColor=none;" vertex="1" parent="1">
          <mxGeometry x="70" y="330" width="140" height="30" as="geometry" />
        </mxCell>
        <mxCell id="JsweZ0hBpdjGZ_ju9Et5-52" style="edgeStyle=none;rounded=0;orthogonalLoop=1;jettySize=auto;html=1;exitX=0.75;exitY=1;exitDx=0;exitDy=0;entryX=0.75;entryY=0;entryDx=0;entryDy=0;" edge="1" parent="1" source="JsweZ0hBpdjGZ_ju9Et5-31" target="JsweZ0hBpdjGZ_ju9Et5-3">
          <mxGeometry relative="1" as="geometry" />
        </mxCell>
        <mxCell id="JsweZ0hBpdjGZ_ju9Et5-31" value="视图解析器(ViewResolver)，将逻辑视图解析为真正的视图" style="rounded=1;whiteSpace=wrap;html=1;" vertex="1" parent="1">
          <mxGeometry x="90" y="70" width="150" height="62.5" as="geometry" />
        </mxCell>
        <mxCell id="JsweZ0hBpdjGZ_ju9Et5-33" value="8.请求进行视图解析" style="text;html=1;align=center;verticalAlign=middle;resizable=0;points=[];autosize=1;strokeColor=none;fillColor=none;" vertex="1" parent="1">
          <mxGeometry x="55" y="170" width="130" height="30" as="geometry" />
        </mxCell>
        <mxCell id="JsweZ0hBpdjGZ_ju9Et5-36" value="9.返回View" style="text;html=1;align=center;verticalAlign=middle;resizable=0;points=[];autosize=1;strokeColor=none;fillColor=none;" vertex="1" parent="1">
          <mxGeometry x="175" y="150" width="80" height="30" as="geometry" />
        </mxCell>
        <mxCell id="JsweZ0hBpdjGZ_ju9Et5-59" style="rounded=0;orthogonalLoop=1;jettySize=auto;html=1;exitX=0.25;exitY=0;exitDx=0;exitDy=0;entryX=0.5;entryY=1;entryDx=0;entryDy=0;" edge="1" parent="1" source="JsweZ0hBpdjGZ_ju9Et5-37" target="JsweZ0hBpdjGZ_ju9Et5-47">
          <mxGeometry relative="1" as="geometry" />
        </mxCell>
        <mxCell id="JsweZ0hBpdjGZ_ju9Et5-37" value="视图(View)" style="rounded=1;whiteSpace=wrap;html=1;" vertex="1" parent="1">
          <mxGeometry x="-90" y="385" width="90" height="40" as="geometry" />
        </mxCell>
        <mxCell id="JsweZ0hBpdjGZ_ju9Et5-39" value="10.渲染视图，将Model数据&lt;br&gt;转为response响应" style="text;html=1;align=center;verticalAlign=middle;resizable=0;points=[];autosize=1;strokeColor=none;fillColor=none;" vertex="1" parent="1">
          <mxGeometry x="-40" y="280" width="170" height="40" as="geometry" />
        </mxCell>
        <mxCell id="JsweZ0hBpdjGZ_ju9Et5-44" style="edgeStyle=none;rounded=0;orthogonalLoop=1;jettySize=auto;html=1;exitX=1;exitY=0.5;exitDx=0;exitDy=0;entryX=0;entryY=0.5;entryDx=0;entryDy=0;" edge="1" parent="1" source="JsweZ0hBpdjGZ_ju9Et5-47" target="JsweZ0hBpdjGZ_ju9Et5-3">
          <mxGeometry relative="1" as="geometry">
            <mxPoint x="-60" y="232.5" as="sourcePoint" />
          </mxGeometry>
        </mxCell>
        <mxCell id="JsweZ0hBpdjGZ_ju9Et5-47" value="Client" style="rounded=1;whiteSpace=wrap;html=1;" vertex="1" parent="1">
          <mxGeometry x="-140" y="220" width="80" height="45" as="geometry" />
        </mxCell>
        <mxCell id="JsweZ0hBpdjGZ_ju9Et5-49" value="1.发送请求" style="text;html=1;align=center;verticalAlign=middle;resizable=0;points=[];autosize=1;strokeColor=none;fillColor=none;" vertex="1" parent="1">
          <mxGeometry x="-25" y="210" width="80" height="30" as="geometry" />
        </mxCell>
        <mxCell id="JsweZ0hBpdjGZ_ju9Et5-60" value="11.返回渲染结果" style="text;html=1;align=center;verticalAlign=middle;resizable=0;points=[];autosize=1;strokeColor=none;fillColor=none;" vertex="1" parent="1">
          <mxGeometry x="-155" y="320" width="110" height="30" as="geometry" />
        </mxCell>
      </root>
    </mxGraphModel>
  </diagram>
</mxfile>
